<svg width="63" height="66" viewBox="0 0 63 66" fill="none" xmlns="http://www.w3.org/2000/svg">
<g filter="url(#filter0_d_132_495)">
<path d="M22.451 6.25088L13.4869 15.8952M31.8001 20.9199C31.8939 21.0151 32.1835 21.3195 32.2741 21.4247C39.2532 29.5146 42.1927 56.9827 42.1927 56.9827C48.6735 57.1416 58 55.7696 58 55.7696L51.9867 25.5798L49.7704 15.893L47.2499 4.89566L46.242 1.00122C46.242 1.00122 42.3027 2.28258 31.9991 2.44037H31.4442C21.1422 2.28146 16.9813 1.01577 16.9813 1.01577L15.9831 4.81397L11.0117 26.0443L5 56.0818C5 56.0818 14.773 57.1427 21.2554 56.9838C21.2554 56.9838 24.1917 29.5179 31.1756 21.4269C31.2662 21.3217 31.5526 21.0173 31.648 20.9222L31.8001 20.9199Z" stroke="black" stroke-width="1.5" stroke-miterlimit="10" stroke-linecap="round" stroke-linejoin="round"/>
<path d="M29.8441 17.7595L31.648 20.865M29.8441 17.7595C33.3159 16.3808 31.7402 6.47571 31.7402 6.47571H32.2902C32.2902 6.47571 34.1458 6.49922 36.6631 6.38059C36.6631 6.38059 39.808 18.7007 30.9669 18.0583L29.8441 17.7595ZM49.7703 15.894L48.2998 9.476L47.2336 4.8161C45.3295 5.42265 42.8252 5.87252 40.5215 6.10306L49.7703 15.894ZM13.4868 15.894L14.9557 9.476L16.0251 4.8161C17.9292 5.42265 20.4303 5.87252 22.7373 6.10306L13.4868 15.894Z" stroke="black" stroke-width="1.5" stroke-miterlimit="10" stroke-linecap="round" stroke-linejoin="round"/>
<path d="M15.9831 4.81275L16.9813 1.01455C16.9813 1.01455 21.1422 2.28024 31.4442 2.43915H31.9991C42.3027 2.28024 46.2404 1 46.2404 1L47.2321 4.8161C45.328 5.42265 42.8236 5.87253 40.5183 6.10306C36.2943 6.52496 32.2903 6.47572 32.2903 6.47572H31.7403C31.7403 6.47572 21.3719 6.53055 15.9831 4.81275Z" stroke="black" stroke-width="1.5" stroke-miterlimit="10" stroke-linecap="round" stroke-linejoin="round"/>
<path d="M31.7257 3.0155V5.97886M35.1263 4.34946C35.1271 4.38756 35.1171 4.42541 35.0967 4.46081C35.0763 4.49621 35.046 4.52847 35.0075 4.55573C34.969 4.58298 34.923 4.6047 34.8723 4.61962C34.8217 4.63454 34.7672 4.64237 34.7121 4.64266C34.5994 4.64267 34.4912 4.61185 34.4112 4.55692C34.3312 4.502 34.2859 4.42743 34.285 4.34946C34.285 4.19055 34.4775 4.06073 34.7121 4.06073C34.9434 4.06073 35.1263 4.19055 35.1263 4.34946Z" stroke="black" stroke-width="1.5" stroke-miterlimit="10" stroke-linecap="round" stroke-linejoin="round"/>
</g>
<defs>
<filter id="filter0_d_132_495" x="0.25" y="0.25" width="62.5" height="65.5" filterUnits="userSpaceOnUse" color-interpolation-filters="sRGB">
<feFlood flood-opacity="0" result="BackgroundImageFix"/>
<feColorMatrix in="SourceAlpha" type="matrix" values="0 0 0 0 0 0 0 0 0 0 0 0 0 0 0 0 0 0 127 0" result="hardAlpha"/>
<feOffset dy="4"/>
<feGaussianBlur stdDeviation="2"/>
<feComposite in2="hardAlpha" operator="out"/>
<feColorMatrix type="matrix" values="0 0 0 0 0 0 0 0 0 0 0 0 0 0 0 0 0 0 0.25 0"/>
<feBlend mode="normal" in2="BackgroundImageFix" result="effect1_dropShadow_132_495"/>
<feBlend mode="normal" in="SourceGraphic" in2="effect1_dropShadow_132_495" result="shape"/>
</filter>
</defs>
</svg>
