<svg width="61" height="55" viewBox="0 0 61 55" fill="none" xmlns="http://www.w3.org/2000/svg">
<path d="M60.4955 8.12409L59.4789 7.56402C50.6533 2.60712 40.6663 0 30.5037 0C20.341 0 10.354 2.60712 1.52848 7.56402L0.511805 8.12409C0.290579 8.2486 0.124962 8.4503 0.0477611 8.68925C-0.0294394 8.92819 -0.012591 9.18695 0.0949688 9.41425L7.21168 24.4161C7.32266 24.6522 7.52273 24.8364 7.76947 24.9298C8.0162 25.0231 8.2902 25.0182 8.53336 24.9162C9.39753 24.5562 10.2922 24.2161 11.1869 23.9161V49.9994C11.1876 50.1496 11.2227 50.2977 11.2896 50.4328C11.3564 50.5678 11.4534 50.6863 11.5732 50.7795C11.7867 50.9995 17.0836 55 30.5037 55C43.9238 55 49.2206 50.9995 49.4341 50.7795C49.5539 50.6863 49.6509 50.5678 49.7178 50.4328C49.7847 50.2977 49.8198 50.1496 49.8205 49.9994V23.8961C50.7151 24.2161 51.5996 24.5562 52.474 24.8962C52.7171 24.9982 52.9911 25.0031 53.2379 24.9097C53.4846 24.8164 53.6847 24.6322 53.7956 24.3961L60.9124 9.39425C61.014 9.16919 61.0277 8.91514 60.9508 8.68076C60.8739 8.44638 60.7118 8.24817 60.4955 8.12409ZM30.5037 1.99332C32.8832 1.99514 35.2602 2.14546 37.6204 2.44337C37.6204 4.30012 36.8706 6.08082 35.5359 7.39374C34.2013 8.70667 32.3911 9.44426 30.5037 9.44426C28.6162 9.44426 26.806 8.70667 25.4714 7.39374C24.1367 6.08082 23.387 4.30012 23.387 2.44337C25.7471 2.14546 28.1241 1.99514 30.5037 1.99332ZM52.3621 22.7059C51.5285 22.3759 50.6745 22.0758 49.8205 21.7858V15.9951H47.7871V49.4693C46.3943 50.3194 41.1686 52.9997 30.5037 52.9997C19.8388 52.9997 14.6029 50.3194 13.2202 49.4693V15.9951H11.1869V21.7858C10.3329 22.0758 9.47886 22.3759 8.64519 22.7059L2.34182 9.40425L2.52482 9.30424C8.35376 6.02754 14.7297 3.79908 21.3536 2.72341C21.3536 5.11066 22.3176 7.40013 24.0336 9.08817C25.7496 10.7762 28.0769 11.7245 30.5037 11.7245C32.9304 11.7245 35.2578 10.7762 36.9737 9.08817C38.6897 7.40013 39.6537 5.11066 39.6537 2.72341C46.2916 3.79449 52.6818 6.02308 58.5232 9.30424L58.7062 9.40425L52.3621 22.7059Z" fill="black"/>
</svg>
