<svg width="24" height="24" viewBox="0 0 24 24" fill="none" xmlns="http://www.w3.org/2000/svg">
<path d="M19.101 18H7.96301C5.02901 18 3.56301 18 2.66801 16.883C0.971008 14.763 2.90501 9.123 4.07601 7C4.47301 9.4 8.56201 9.333 10.051 9C9.05901 7.001 10.383 6.334 11.045 6H11.047C14 9.5 20.315 11.404 21.862 15.219C22.531 16.867 20.625 18 19.101 18Z" stroke="black" stroke-width="1.5" stroke-linecap="round" stroke-linejoin="round"/>
<path d="M2 14C6.165 15.43 8.731 15.844 12.022 14.804C13.019 14.489 13.517 14.331 13.828 14.352C14.138 14.374 14.773 14.669 16.041 15.261C17.624 15.999 19.797 16.424 22 15.358M13.5 9.5L15 8M15.5 11L17 9.5" stroke="black" stroke-width="1.5" stroke-linecap="round" stroke-linejoin="round"/>
</svg>
